<svg
  width="964"
  height="425"
  viewBox="500.847 382 1197.567 526.749"
  fill="none"
  xmlns="http://www.w3.org/2000/svg"
>
  <path d="M656.12 744.528L699.143 736.882L656.12 729.242C629.161 724.448 607.837 687.281 605.092 640.28L600.703 565.278L596.321 640.272C593.575 687.276 572.251 724.448 545.292 729.236L502.263 736.882L545.28 744.528C572.245 749.324 593.563 786.489 596.309 833.493L600.691 908.486L605.074 833.479C607.837 786.489 629.15 749.324 656.12 744.528Z" fill="#87FABB"/>
  <path d="M505.805 490.566C505.805 480.162 506.773 469.76 508.709 459.357C510.646 448.953 513.622 439.124 517.637 429.858C521.653 420.573 526.637 412.352 532.589 405.197C538.559 398.022 545.604 392.357 553.707 388.209C561.811 384.064 570.99 381.99 581.244 381.99C586.64 381.99 591.794 382.7 596.698 384.1C601.619 385.509 606.674 386.919 611.864 388.319C617.072 389.729 622.8 390.428 629.039 390.428C633.888 390.428 637.725 389.729 640.548 388.319C643.39 386.919 645.819 385.509 647.827 384.1C649.853 382.7 651.896 381.99 653.958 381.99C656.727 381.99 658.314 383.582 658.727 386.756C659.157 389.911 658.843 393.839 657.795 398.54C656.763 403.251 655.284 407.916 653.349 412.545C651.959 415.799 649.951 419.637 647.325 424.075C644.69 428.494 641.427 432.323 637.536 435.568C633.665 438.797 629.236 440.406 624.27 440.406C616.902 440.406 610.34 439.561 604.586 437.859C598.849 436.168 593.587 434.059 588.81 431.531C584.023 429.011 579.451 426.494 575.077 423.966C570.721 421.419 566.266 419.31 561.703 417.637C557.132 415.944 552.148 415.091 546.752 415.091C543.283 415.091 540.441 416.054 538.218 417.964C535.995 419.854 534.256 422.21 533.019 425.02C531.773 427.811 530.904 430.612 530.402 433.423C529.918 436.242 529.685 438.625 529.685 440.589C529.685 441.588 529.649 443.379 529.577 445.972C529.523 448.572 529.523 451.309 529.577 454.191C529.649 457.084 529.989 459.539 530.617 461.577C531.262 463.612 532.275 464.631 533.664 464.631C535.744 464.631 537.842 463.722 539.975 461.904C542.126 460.065 545.004 458.229 548.616 456.411C552.219 454.592 557.078 453.683 563.173 453.683C568.282 453.683 573.266 454.574 578.125 456.339C582.974 458.083 587.68 460.085 592.252 462.34C596.814 464.577 601.269 466.577 605.626 468.342C610 470.087 614.204 470.96 618.246 470.96C621.42 470.96 623.911 470.259 625.704 468.85C627.514 467.451 628.976 466.078 630.078 464.741C631.172 463.413 632.284 462.739 633.413 462.739C635.062 462.739 636.335 463.904 637.25 466.232C638.155 468.541 638.612 471.379 638.612 474.742C638.612 478.263 637.939 482.054 636.604 486.128C635.286 490.201 633.207 494.075 630.366 497.732C627.542 501.396 623.876 504.388 619.358 506.715C614.858 509.025 609.426 510.17 603.044 510.17C596.949 510.17 591.4 508.88 586.407 506.28C581.432 503.687 576.906 500.496 572.818 496.713C568.731 492.911 564.912 489.137 561.38 485.4C557.867 481.671 554.434 478.507 551.09 475.907C547.765 473.316 544.367 472.015 540.907 472.015C538.702 472.015 537.259 472.725 536.569 474.124C535.87 475.535 535.583 477.161 535.708 478.999C535.852 480.818 536.138 482.437 536.569 483.837C540.728 496.767 546.438 508.188 553.707 518.1C560.968 527.994 569.17 535.76 578.304 541.381C587.456 547.008 596.814 549.819 606.378 549.819C613.711 549.819 619.735 548.764 624.449 546.655C629.156 544.545 633 541.952 635.994 538.87C638.979 535.769 641.409 532.678 643.274 529.594C645.138 526.493 646.868 523.884 648.472 521.775C650.067 519.665 651.896 518.61 653.958 518.61C655.222 518.61 656.405 519.282 657.508 520.61C658.602 521.947 659.157 525.075 659.157 529.996C659.157 537.151 657.625 544.745 654.568 552.764C651.529 560.767 647.074 568.287 641.194 575.316C635.314 582.355 628.071 588.083 619.466 592.52C610.878 596.931 601.045 599.141 589.957 599.141C578.313 599.141 567.404 596.895 557.221 592.412C547.038 587.902 538.093 581.155 530.402 572.152C522.729 563.159 516.705 551.845 512.331 538.214C507.974 524.593 505.805 508.708 505.805 490.566Z" fill="white"/>
  <path d="M689.219 410.156C689.219 404.118 688.688 399.171 687.641 395.315C686.609 391.441 684.709 388.095 681.94 385.276H748.021C753.012 385.276 756.993 386.868 759.96 390.041C762.946 393.197 765.608 398.143 767.955 404.882C770.321 411.629 772.984 420.412 775.951 431.251C778.937 442.074 782.925 455.067 787.926 470.244C792.92 455.067 796.899 442.074 799.866 431.251C802.851 420.412 805.513 411.629 807.862 404.882C810.229 398.143 812.891 393.197 815.857 390.041C818.844 386.868 822.833 385.276 827.833 385.276H893.483C890.706 388.095 888.797 391.441 887.748 395.315C886.717 399.171 886.205 404.118 886.205 410.156V571.218C886.205 577.257 886.717 582.221 887.748 586.095C888.797 589.95 890.706 593.289 893.483 596.097H823.891C826.659 593.289 828.559 589.95 829.59 586.095C830.612 582.221 831.133 577.257 831.133 571.218V448.53C831.133 445.283 830.963 441.873 830.63 438.31C830.29 434.726 829.6 431.706 828.551 429.251C827.519 426.779 825.826 425.541 823.46 425.541C821.524 425.541 819.372 427.869 817.005 432.525C814.657 437.163 812.201 443.346 809.619 451.076C807.056 458.787 804.501 467.398 801.946 476.901C799.383 486.385 796.925 495.979 794.56 505.673C792.48 514.53 790.509 523.059 788.644 531.28C786.78 539.499 784.968 546.921 783.23 553.541C781.508 560.143 779.734 565.342 777.924 569.145C776.132 572.928 774.195 574.82 772.116 574.82C770.321 574.82 768.279 572.747 765.983 568.598C763.707 564.451 761.359 558.978 758.919 552.158C756.501 545.32 753.982 537.792 751.355 529.571C748.719 521.35 746.095 513.167 743.468 505.017C742.625 502.498 741.441 498.852 739.917 494.069C738.384 489.295 736.618 483.922 734.611 477.956C732.603 471.973 730.452 465.917 728.156 459.806C725.88 453.694 723.602 448.047 721.309 442.856C719.033 437.645 716.827 433.461 714.675 430.306C712.524 427.133 710.606 425.541 708.938 425.541C706.732 425.541 705.075 426.779 703.955 429.251C702.852 431.706 702.126 434.726 701.768 438.31C701.428 441.873 701.265 445.283 701.265 448.53C701.265 462.016 702.852 474.174 706.034 485.013C709.234 495.834 713.188 505.627 717.902 514.403C722.608 523.186 727.278 531.198 731.922 538.445C736.556 545.674 740.465 552.486 743.646 558.886C746.847 565.289 748.451 571.508 748.451 577.547C748.451 584.022 746.121 588.74 741.458 591.696C736.817 594.635 731.456 596.097 725.359 596.097H681.94C684.709 593.289 686.609 589.95 687.641 586.095C688.688 582.221 689.219 577.257 689.219 571.218V410.156Z" fill="white"/>
  <path d="M737.292 662.78H822.239C839.375 662.78 853.111 665.528 863.439 671.006C873.766 676.494 881.276 683.909 885.984 693.251C890.685 702.601 893.038 713.042 893.038 724.571C893.038 732.834 891.776 741.115 889.257 749.396C886.729 757.661 882.793 765.177 877.439 771.936C872.102 778.706 865.148 784.147 856.567 788.279C848.002 792.41 837.62 794.478 825.403 794.478C816.11 794.478 807.92 793.241 800.821 790.751C793.739 788.242 787.63 785.356 782.494 782.082C777.375 778.818 773.056 775.938 769.547 773.45C766.029 770.941 763.22 769.687 761.111 769.687C757.883 769.687 756.275 771.475 756.275 775.035C756.275 779.591 757.602 783.796 760.274 787.652C762.939 791.489 766.401 795.195 770.676 798.755C774.965 802.324 779.492 806.004 784.275 809.784C789.075 813.547 793.603 817.606 797.875 821.959C802.166 826.313 805.638 831.2 808.312 836.604C810.975 842.018 812.312 848.15 812.312 855.013C812.312 857.871 811.775 860.969 810.712 864.308C809.667 867.656 808.057 870.543 805.875 872.978C803.712 875.393 800.876 876.594 797.365 876.594H737.292C740.102 873.744 742.028 870.358 743.076 866.448C744.138 862.52 744.675 857.483 744.675 851.359V688.012C744.675 681.888 744.138 676.872 743.076 672.962C742.028 669.032 740.102 665.64 737.292 662.78ZM810.021 707.454C804.658 707.454 798.821 707.674 792.492 708.118C786.184 708.542 780.221 709.427 774.603 710.774C768.975 712.129 764.367 714.231 760.785 717.081C757.192 719.939 755.402 723.787 755.402 728.628C755.402 733.48 757.294 737.289 761.075 740.064C764.875 742.849 769.912 744.953 776.166 746.372C782.421 747.801 789.229 748.733 796.602 749.176C803.993 749.6 811.338 749.803 818.638 749.803C825.957 749.803 833.338 749.6 840.784 749.176C848.22 748.733 855.076 747.801 861.33 746.372C867.584 744.953 872.601 742.849 876.384 740.064C880.185 737.289 882.094 733.48 882.094 728.628C882.094 724.792 880.539 721.6 877.439 719.036C874.357 716.454 870.247 714.389 865.111 712.839C859.994 711.272 854.275 710.13 847.947 709.408C841.621 708.698 835.148 708.192 828.53 707.895C821.929 707.601 815.765 707.454 810.021 707.454Z" fill="white"/>
  <path d="M902.527 769.623C902.527 753.097 904.492 738.1 908.418 724.618C912.345 711.143 917.955 699.522 925.255 689.756C932.573 679.999 941.329 672.52 951.509 667.327C961.709 662.117 973.073 659.508 985.582 659.508C997.945 659.508 1009.22 662.117 1019.4 667.327C1029.58 672.52 1038.32 679.999 1045.62 689.756C1052.94 699.522 1058.56 711.143 1062.49 724.618C1066.42 738.1 1068.38 753.097 1068.38 769.623C1068.38 786.148 1066.42 801.155 1062.49 814.628C1058.56 828.112 1052.94 839.732 1045.62 849.49C1038.32 859.256 1029.58 866.743 1019.4 871.954C1009.22 877.138 997.945 879.739 985.582 879.739C973.073 879.739 961.709 877.138 951.509 871.954C941.329 866.743 932.573 859.256 925.255 849.49C917.955 839.732 912.345 828.112 908.418 814.628C904.492 801.155 902.527 786.148 902.527 769.623ZM968.491 674.042C963.563 674.042 959.7 676.726 956.891 682.084C954.073 687.424 952.173 694.655 951.182 703.773C950.21 712.905 950.037 723.132 950.674 734.466C951.301 745.783 952.602 757.504 954.564 769.623C956.545 781.75 959.047 793.481 962.054 804.815C965.083 816.132 968.528 826.349 972.382 835.471C976.254 844.6 980.401 851.84 984.819 857.199C989.256 862.538 993.784 865.203 998.419 865.203C1004.33 865.203 1009.04 862.538 1012.53 857.199C1016.04 851.84 1018.5 844.6 1019.91 835.471C1021.31 826.349 1021.8 816.132 1021.36 804.815C1020.95 793.481 1019.76 781.75 1017.8 769.623C1015.84 757.504 1013.2 745.783 1009.91 734.466C1006.61 723.132 1002.82 712.905 998.528 703.773C994.236 694.655 989.555 687.424 984.491 682.084C979.446 676.726 974.109 674.042 968.491 674.042Z" fill="white"/>
  <path d="M1092.2 704.244C1089.53 695.418 1086.86 687.192 1084.2 679.566C1081.53 671.947 1078.02 666.35 1073.66 662.78H1160.71C1158.31 665.492 1156.44 668.94 1155.11 673.147C1153.77 677.352 1153.11 681.668 1153.11 686.094C1153.11 688.805 1153.49 693.509 1154.27 700.223C1155.05 706.918 1156.17 714.822 1157.66 723.944C1159.13 733.073 1160.86 742.665 1162.82 752.717C1164.78 762.751 1166.91 772.619 1169.22 782.303C1171.55 791.995 1174.04 800.802 1176.71 808.716C1179.37 816.61 1182.11 822.918 1184.93 827.641C1187.74 832.343 1190.55 834.687 1193.37 834.687C1197.02 834.687 1200.11 832.767 1202.64 828.931C1205.16 825.076 1207.16 819.912 1208.64 813.438C1210.11 806.946 1211.2 799.78 1211.91 791.931C1212.61 784.093 1212.97 776.179 1212.97 768.21C1212.97 760.224 1212.72 752.735 1212.24 745.745C1211.75 738.765 1211.08 732.926 1210.24 728.222C1209.24 724.368 1208.18 720.439 1207.07 716.454C1205.96 712.471 1204.76 708.404 1203.47 704.244C1200.8 695.418 1198.14 687.192 1195.47 679.566C1192.8 671.947 1189.29 666.35 1184.93 662.78H1271.98C1269.6 665.492 1267.74 668.94 1266.38 673.147C1265.05 677.352 1264.38 681.668 1264.38 686.094C1264.38 688.805 1264.77 693.509 1265.55 700.223C1266.32 706.918 1267.45 714.822 1268.93 723.944C1270.4 733.073 1272.13 742.665 1274.09 752.717C1276.06 762.751 1278.18 772.619 1280.49 782.303C1282.82 791.995 1285.31 800.802 1287.98 808.716C1290.67 816.61 1293.42 822.918 1296.24 827.641C1299.05 832.343 1301.85 834.687 1304.64 834.687C1308.29 834.687 1311.18 833.129 1313.29 830.002C1315.4 826.857 1316.9 822.754 1317.8 817.681C1318.72 812.616 1319.18 807.24 1319.18 801.558C1319.18 793 1318.13 784.664 1316.02 776.547C1313.91 768.413 1311.3 760.492 1308.2 752.791C1305.12 745.101 1302 737.511 1298.86 730.029C1295.7 722.56 1293.07 715.117 1290.97 707.713C1288.86 700.287 1287.8 692.865 1287.8 685.431C1287.8 682.018 1288.21 678.559 1289.04 675.064C1289.88 671.579 1291.44 668.664 1293.69 666.323C1295.95 663.961 1299.11 662.78 1303.18 662.78H1374.42C1370.06 666.35 1366.54 671.947 1363.87 679.566C1361.2 687.192 1358.54 695.418 1355.87 704.244C1351.66 718.807 1347.96 732.078 1344.78 744.048C1341.63 756 1338.82 767.648 1336.35 778.982C1333.89 790.326 1331.51 802.132 1329.18 814.397C1326.87 826.643 1324.39 840.183 1321.73 855.013C1321.02 859.144 1321.06 863.202 1321.84 867.186C1322.61 871.17 1324.11 874.306 1326.35 876.594H1233C1235.37 874.306 1236.91 871.17 1237.62 867.186C1238.32 863.202 1238.32 859.144 1237.62 855.013C1235.24 841.17 1233 828.554 1230.89 817.163C1228.78 805.756 1226.53 794.698 1224.13 784C1221.75 794.698 1219.47 805.756 1217.29 817.163C1215.11 828.554 1212.83 841.17 1210.46 855.013C1209.75 859.144 1209.78 863.202 1210.53 867.186C1211.3 871.17 1212.82 874.306 1215.07 876.594H1121.69C1124.09 874.306 1125.64 871.17 1126.35 867.186C1127.05 863.202 1127.05 859.144 1126.35 855.013C1123.67 840.183 1121.18 826.643 1118.86 814.397C1116.55 802.132 1114.13 790.326 1111.58 778.982C1109.06 767.648 1106.25 756 1103.15 744.048C1100.07 732.078 1096.42 718.807 1092.2 704.244Z" fill="white"/>
  <path d="M1379.68 769.623C1379.68 759.071 1380.66 748.522 1382.62 737.97C1384.58 727.421 1387.6 717.452 1391.68 708.054C1395.75 698.638 1400.8 690.301 1406.84 683.043C1412.89 675.765 1420.04 670.02 1428.26 665.814C1436.47 661.61 1445.78 659.508 1456.18 659.508C1461.66 659.508 1466.88 660.225 1471.86 661.647C1476.85 663.076 1481.98 664.506 1487.24 665.925C1492.52 667.356 1498.33 668.066 1504.66 668.066C1509.58 668.066 1513.46 667.356 1516.33 665.925C1519.21 664.506 1521.68 663.076 1523.71 661.647C1525.77 660.225 1527.84 659.508 1529.93 659.508C1532.74 659.508 1534.35 661.12 1534.77 664.339C1535.2 667.539 1534.88 671.523 1533.82 676.292C1532.78 681.069 1531.28 685.799 1529.31 690.494C1527.9 693.796 1525.87 697.688 1523.2 702.189C1520.53 706.67 1517.22 710.553 1513.27 713.845C1509.35 717.119 1504.86 718.753 1499.82 718.753C1492.35 718.753 1485.69 717.894 1479.86 716.169C1474.04 714.455 1468.7 712.314 1463.86 709.75C1459 707.197 1454.37 704.642 1449.93 702.078C1445.51 699.495 1440.99 697.356 1436.37 695.659C1431.73 693.944 1426.67 693.077 1421.2 693.077C1417.68 693.077 1414.8 694.054 1412.55 695.991C1410.29 697.908 1408.53 700.298 1407.28 703.146C1406.01 705.978 1405.13 708.819 1404.62 711.67C1404.13 714.528 1403.89 716.945 1403.89 718.936C1403.89 719.951 1403.86 721.768 1403.78 724.397C1403.73 727.033 1403.73 729.808 1403.78 732.732C1403.86 735.665 1404.2 738.156 1404.84 740.222C1405.49 742.287 1406.52 743.32 1407.93 743.32C1410.04 743.32 1412.17 742.398 1414.33 740.554C1416.51 738.691 1419.43 736.827 1423.09 734.984C1426.75 733.139 1431.67 732.217 1437.86 732.217C1443.04 732.217 1448.09 733.12 1453.02 734.909C1457.94 736.681 1462.71 738.709 1467.35 740.997C1471.97 743.265 1476.49 745.295 1480.91 747.082C1485.35 748.854 1489.61 749.738 1493.71 749.738C1496.93 749.738 1499.46 749.029 1501.27 747.6C1503.11 746.179 1504.59 744.787 1505.71 743.431C1506.82 742.086 1507.95 741.403 1509.09 741.403C1510.77 741.403 1512.06 742.583 1512.98 744.944C1513.9 747.285 1514.37 750.165 1514.37 753.577C1514.37 757.145 1513.68 760.991 1512.33 765.122C1510.99 769.254 1508.88 773.183 1506 776.89C1503.14 780.607 1499.42 783.641 1494.84 786.002C1490.28 788.345 1484.76 789.506 1478.29 789.506C1472.11 789.506 1466.48 788.197 1461.42 785.56C1456.37 782.931 1451.78 779.695 1447.64 775.856C1443.49 772.002 1439.62 768.174 1436.04 764.384C1432.47 760.603 1428.99 757.393 1425.6 754.755C1422.23 752.128 1418.78 750.809 1415.27 750.809C1413.04 750.809 1411.57 751.528 1410.87 752.948C1410.17 754.378 1409.87 756.029 1410 757.891C1410.15 759.736 1410.44 761.379 1410.87 762.798C1415.09 775.912 1420.88 787.497 1428.26 797.548C1435.62 807.583 1443.94 815.458 1453.2 821.158C1462.48 826.867 1471.97 829.716 1481.67 829.716C1489.11 829.716 1495.22 828.645 1500 826.507C1504.78 824.367 1508.68 821.738 1511.71 818.612C1514.74 815.467 1517.2 812.332 1519.09 809.205C1520.98 806.061 1522.74 803.413 1524.37 801.273C1525.98 799.135 1527.84 798.064 1529.93 798.064C1531.21 798.064 1532.41 798.747 1533.53 800.093C1534.64 801.45 1535.2 804.62 1535.2 809.61C1535.2 816.868 1533.65 824.57 1530.55 832.704C1527.46 840.82 1522.95 848.447 1516.98 855.575C1511.02 862.714 1503.67 868.525 1494.95 873.025C1486.24 877.498 1476.27 879.739 1465.02 879.739C1453.21 879.739 1442.15 877.459 1431.82 872.913C1421.49 868.339 1412.42 861.496 1404.62 852.366C1396.84 843.245 1390.73 831.772 1386.29 817.949C1381.87 804.132 1379.68 788.021 1379.68 769.623Z" fill="white"/>
  <path d="M1541.53 662.78H1626.48C1643.61 662.78 1657.35 665.528 1667.68 671.006C1678 676.494 1685.51 683.909 1690.22 693.251C1694.92 702.601 1697.28 713.042 1697.28 724.571C1697.28 732.834 1696.19 741.004 1694 749.066C1691.84 757.107 1688.37 764.374 1683.57 770.868C1678.79 777.36 1672.68 782.562 1665.24 786.472C1657.79 790.381 1648.8 792.337 1638.26 792.337C1630.26 792.337 1623.33 791.175 1617.5 788.833C1611.68 786.472 1606.66 783.548 1602.44 780.053C1598.22 776.566 1594.52 773.035 1591.35 769.464C1588.19 765.904 1585.39 762.954 1582.91 760.611C1580.46 758.25 1578.05 757.071 1575.68 757.071C1572.86 757.071 1570.96 757.79 1569.97 759.209C1568.99 760.639 1568.51 762.216 1568.51 763.931C1568.51 766.763 1569.98 769.603 1572.91 772.452C1575.87 775.311 1579.84 778.096 1584.84 780.828C1589.83 783.54 1595.35 786.13 1601.39 788.61C1607.42 791.1 1613.46 793.553 1619.49 795.988C1625.69 798.275 1632.27 800.813 1639.2 803.587C1646.16 806.372 1652.93 809.472 1659.53 812.884C1666.15 816.306 1672.12 820.151 1677.46 824.432C1682.81 828.71 1687.1 833.561 1690.33 838.965C1693.55 844.379 1695.17 850.438 1695.17 857.153C1695.17 863.995 1694.15 868.948 1692.11 872.019C1690.08 875.072 1686.46 876.594 1681.28 876.594H1635.75C1634.34 876.594 1632.97 876.243 1631.64 875.523C1630.3 874.812 1629.64 873.531 1629.64 871.685C1629.64 869.104 1629.95 866.854 1630.59 864.936C1631.21 863.018 1631.8 860.951 1632.37 858.737C1632.92 856.526 1633.2 853.638 1633.2 850.069C1633.2 845.374 1631.76 840.431 1628.88 835.239C1626.01 830.029 1622.22 824.891 1617.5 819.819C1612.79 814.757 1607.7 809.988 1602.22 805.506C1596.74 801.006 1591.4 797.012 1586.19 793.517C1580.99 790.032 1576.37 787.283 1572.29 785.291C1568.22 783.298 1565.35 782.303 1563.68 782.303C1562.27 782.303 1561.28 782.883 1560.7 784.037C1560.13 785.171 1559.86 786.019 1559.86 786.581C1559.86 790.152 1561.22 793.361 1563.97 796.212C1566.7 799.07 1570.26 801.845 1574.62 804.547C1578.99 807.258 1583.59 810.146 1588.44 813.216C1593.29 816.27 1597.84 819.727 1602.11 823.583C1606.4 827.42 1609.91 831.91 1612.66 837.048C1615.4 842.165 1616.77 848.15 1616.77 855.013C1616.77 857.871 1616.23 860.969 1615.17 864.308C1614.12 867.656 1612.51 870.543 1610.33 872.978C1608.17 875.393 1605.33 876.594 1601.82 876.594H1541.75C1544.56 873.744 1546.49 870.358 1547.53 866.448C1548.59 862.52 1549.13 857.483 1549.13 851.359V814.801L1548.91 769.687V688.012C1548.91 681.888 1548.38 676.872 1547.31 672.962C1546.27 669.032 1544.34 665.64 1541.53 662.78ZM1614.26 707.454C1608.9 707.454 1603.06 707.674 1596.73 708.118C1590.42 708.542 1584.46 709.427 1578.84 710.774C1573.21 712.129 1568.6 714.231 1565.02 717.081C1561.43 719.939 1559.64 723.787 1559.64 728.628C1559.64 733.48 1561.53 737.289 1565.31 740.064C1569.11 742.849 1574.15 744.953 1580.41 746.372C1586.66 747.801 1593.47 748.733 1600.84 749.176C1608.23 749.6 1615.58 749.803 1622.88 749.803C1630.19 749.803 1637.58 749.6 1645.02 749.176C1652.46 748.733 1659.31 747.801 1665.57 746.372C1671.82 744.953 1676.84 742.849 1680.62 740.064C1684.42 737.289 1686.33 733.48 1686.33 728.628C1686.33 724.792 1684.78 721.6 1681.68 719.036C1678.6 716.454 1674.49 714.389 1669.35 712.839C1664.23 711.272 1658.51 710.13 1652.19 709.408C1645.86 708.698 1639.39 708.192 1632.77 707.895C1626.17 707.601 1620 707.454 1614.26 707.454Z" fill="white"/>
  <path d="M957.206 433.635V394.904H980.451V402.65H964.954V410.396H980.451V418.143H964.954V433.635H957.206ZM1003.7 433.635V425.889H995.947V402.65H1003.7V394.904H1019.19V402.65H1026.94V425.889H1019.19V433.635H1003.7ZM1003.7 425.579H1019.19V402.96H1003.7V425.579ZM1050.18 433.635V425.889H1042.44V394.904H1050.18V425.889H1065.68V433.635H1050.18ZM1065.68 425.889V394.904H1073.43V425.889H1065.68ZM1088.93 433.635V394.904H1096.67V402.65H1104.42V410.396H1112.17V418.143H1119.92V394.904H1127.67V433.635H1119.92V425.889H1112.17V418.143H1104.42V410.396H1096.67V433.635H1088.93ZM1143.16 433.635V394.904H1166.41V402.65H1174.16V425.889H1166.41V433.635H1143.16ZM1150.91 425.889H1166.1V402.65H1150.91V425.889ZM1189.65 433.635V394.904H1212.9V402.65H1197.4V410.396H1212.9V418.143H1197.4V425.889H1212.9V433.635H1189.65ZM1228.39 433.635V394.904H1251.64V402.65H1259.39V410.396H1251.64V425.889H1259.39V433.635H1251.64V425.889H1243.89V418.143H1236.14V433.635H1228.39ZM1236.14 410.396H1251.33V402.65H1236.14V410.396ZM1282.63 402.65V394.904H1305.88V402.65H1282.63ZM1298.13 425.889V418.143H1282.63V410.396H1274.88V402.65H1282.63V410.396H1298.13V418.143H1305.88V425.889H1298.13ZM1274.88 433.635V425.889H1298.13V433.635H1274.88ZM957.206 510.479V471.747H980.451V479.494H988.199V487.24H980.451V502.733H988.199V510.479H980.451V502.733H972.703V494.986H964.954V510.479H957.206ZM964.954 487.24H980.141V479.494H964.954V487.24ZM1003.7 510.479V471.747H1026.94V479.494H1011.44V487.24H1026.94V494.986H1011.44V502.733H1026.94V510.479H1003.7ZM1050.18 479.494V471.747H1073.43V479.494H1050.18ZM1065.68 502.733V494.986H1050.18V487.24H1042.44V479.494H1050.18V487.24H1065.68V494.986H1073.43V502.733H1065.68ZM1042.44 510.479V502.733H1065.68V510.479H1042.44ZM1088.93 510.479V471.747H1096.67V510.479H1088.93ZM1112.17 510.479V471.747H1135.42V479.494H1143.16V502.733H1135.42V510.479H1112.17ZM1119.92 502.733H1135.11V479.494H1119.92V502.733ZM1158.66 510.479V471.747H1181.9V479.494H1166.41V487.24H1181.9V494.986H1166.41V502.733H1181.9V510.479H1158.66ZM1197.4 510.479V471.747H1205.15V479.494H1212.9V487.24H1220.65V494.986H1228.39V471.747H1236.14V510.479H1228.39V502.733H1220.65V494.986H1212.9V487.24H1205.15V510.479H1197.4ZM1274.88 487.24V479.494H1259.39V471.747H1274.88V479.494H1282.63V487.24H1274.88ZM1259.39 510.479V502.733H1251.64V479.494H1259.39V502.733H1274.88V510.479H1259.39ZM1274.88 502.733V494.986H1282.63V502.733H1274.88ZM1313.62 510.479V487.24H1305.88V479.494H1298.13V471.747H1305.88V479.494H1313.62V487.24H1321.37V510.479H1313.62ZM1329.12 479.494V471.747H1336.87V479.494H1329.12ZM1321.37 487.24V479.494H1329.12V487.24H1321.37ZM1383.36 510.479V471.747H1406.6V479.494H1414.35V502.733H1406.6V510.479H1383.36ZM1391.11 502.733H1406.29V479.494H1391.11V502.733ZM1429.85 510.479V479.494H1437.6V471.747H1453.09V479.494H1460.84V510.479H1453.09V494.986H1437.6V510.479H1429.85ZM1437.6 487.24H1453.09V479.803H1437.6V487.24ZM1476.34 510.479V471.747H1484.09V479.494H1491.83V487.24H1499.58V494.986H1507.33V471.747H1515.08V510.479H1507.33V502.733H1499.58V494.986H1491.83V487.24H1484.09V510.479H1476.34ZM1530.58 510.479V479.494H1538.32V471.747H1553.82V479.494H1561.57V510.479H1553.82V494.986H1538.32V510.479H1530.58ZM1538.32 487.24H1553.82V479.803H1538.32V487.24ZM1577.06 510.479V471.747H1584.81V479.494H1592.56V487.24H1600.31V494.986H1608.06V471.747H1615.81V510.479H1608.06V502.733H1600.31V494.986H1592.56V487.24H1584.81V510.479H1577.06ZM1639.05 479.494V471.747H1662.3V479.494H1639.05ZM1631.3 502.733V479.494H1639.05V502.733H1631.3ZM1654.55 502.733V494.986H1646.8V487.24H1662.3V502.733H1654.55ZM1639.05 510.479V502.733H1654.55V510.479H1639.05Z" fill="white"/>
  <path d="M954.572 581.389V555.826H969.914V560.939H975.028V576.277H969.914V581.389H954.572ZM959.686 566.052H969.709V560.939H959.686V566.052ZM959.686 576.277H969.709V571.164H959.686V576.277ZM995.483 581.389V566.052H990.369V560.939H985.255V555.826H990.369V560.939H995.483V566.052H1000.6V581.389H995.483ZM1005.71 560.939V555.826H1010.82V560.939H1005.71ZM1000.6 566.052V560.939H1005.71V566.052H1000.6ZM1041.51 581.389V555.826H1046.62V576.277H1056.85V581.389H1041.51ZM1067.08 581.389V555.826H1072.19V581.389H1067.08ZM1087.53 560.939V555.826H1102.87V560.939H1087.53ZM1097.76 576.277V571.164H1087.53V566.052H1082.42V560.939H1087.53V566.052H1097.76V571.164H1102.87V576.277H1097.76ZM1082.42 581.389V576.277H1097.76V581.389H1082.42ZM1113.1 581.389V555.826H1118.22V566.052H1123.33V571.164H1128.44V576.277H1133.56V581.389H1128.44V576.277H1123.33V571.164H1118.22V581.389H1113.1ZM1128.44 560.939V555.826H1133.56V560.939H1128.44ZM1123.33 566.052V560.939H1128.44V566.052H1123.33ZM1174.47 581.389V576.277H1169.35V566.052H1164.24V555.826H1169.35V566.052H1174.47V576.277H1179.58V581.389H1174.47ZM1184.69 566.052V555.826H1189.81V566.052H1184.69ZM1179.58 576.277V566.052H1184.69V576.277H1179.58ZM1200.04 581.389V555.826H1215.38V560.939H1205.15V566.052H1215.38V571.164H1205.15V576.277H1215.38V581.389H1200.04ZM1225.61 581.389V555.826H1230.72V560.939H1235.83V566.052H1240.95V571.164H1246.06V555.826H1251.17V581.389H1246.06V576.277H1240.95V571.164H1235.83V566.052H1230.72V581.389H1225.61ZM1266.52 581.389V560.939H1261.4V555.826H1276.74V560.939H1271.63V581.389H1266.52ZM1292.09 581.389V576.277H1286.97V555.826H1292.09V576.277H1302.31V581.389H1292.09ZM1302.31 576.277V555.826H1307.43V576.277H1302.31ZM1317.65 581.389V555.826H1333V560.939H1338.11V566.052H1333V576.277H1338.11V581.389H1333V576.277H1327.88V571.164H1322.77V581.389H1317.65ZM1322.77 566.052H1332.79V560.939H1322.77V566.052ZM1348.34 581.389V555.826H1363.68V560.939H1353.45V566.052H1363.68V571.164H1353.45V576.277H1363.68V581.389H1348.34ZM1379.02 560.939V555.826H1394.36V560.939H1379.02ZM1389.25 576.277V571.164H1379.02V566.052H1373.91V560.939H1379.02V566.052H1389.25V571.164H1394.36V576.277H1389.25ZM1373.91 581.389V576.277H1389.25V581.389H1373.91ZM1435.27 586.502V581.389H1430.16V576.277H1425.05V571.164H1430.16V566.052H1425.05V560.939H1430.16V555.826H1435.27V550.714H1440.39V555.826H1445.5V560.939H1430.16V566.052H1440.39V571.164H1430.16V576.277H1445.5V581.389H1440.39V586.502H1435.27ZM1481.3 560.939V555.826H1496.64V560.939H1481.3ZM1491.53 576.277V571.164H1481.3V566.052H1476.18V560.939H1481.3V566.052H1491.53V571.164H1496.64V576.277H1491.53ZM1476.18 581.389V576.277H1491.53V581.389H1476.18ZM1522.21 586.502V581.389H1511.98V576.277H1506.87V560.939H1511.98V555.826H1522.21V560.939H1527.32V576.277H1522.21V581.389H1527.32V586.502H1522.21ZM1511.98 576.072H1522.21V561.144H1511.98V576.072ZM1537.55 581.389V555.826H1552.89V560.939H1558V566.052H1552.89V576.277H1558V581.389H1552.89V576.277H1547.78V571.164H1542.66V581.389H1537.55ZM1542.66 566.052H1552.69V560.939H1542.66V566.052ZM1568.23 581.389V555.826H1583.57V560.939H1588.69V576.277H1583.57V581.389H1568.23ZM1573.35 576.277H1583.37V560.939H1573.35V576.277ZM1598.92 581.389V560.939H1604.03V555.826H1614.26V560.939H1619.37V581.389H1614.26V571.164H1604.03V581.389H1598.92ZM1604.03 566.052H1614.26V561.144H1604.03V566.052ZM1634.71 581.389V576.277H1629.6V560.939H1634.71V555.826H1644.94V560.939H1650.05V576.277H1644.94V581.389H1634.71ZM1634.71 576.072H1644.94V561.144H1634.71V576.072Z" fill="white"/>
</svg>
