<svg width="482" height="125" viewBox="0 0 482 125" fill="none" xmlns="http://www.w3.org/2000/svg">
<path d="M224.599 22.0561H213.474V1.60962H223.639C228.427 1.60962 230.796 3.97921 230.676 7.36862C230.586 9.14831 229.886 10.5481 228.547 11.4879C230.616 12.4777 231.645 14.3474 231.645 16.487C231.645 19.7265 228.957 22.066 224.609 22.066L224.599 22.0561ZM218.551 6.3688V9.57823H223.749C225.148 9.57823 225.618 8.90834 225.618 7.96851C225.618 7.02867 225.148 6.35879 223.749 6.35879H218.551V6.3688ZM218.551 14.0774V17.2869H224.689C226.178 17.2869 226.588 16.647 226.588 15.6772C226.588 14.7073 226.178 14.0674 224.689 14.0674H218.551V14.0774Z" fill="#FFF2DD"/>
<path d="M233.125 22.0562V0H238.033V22.0562H233.125Z" fill="#FFF2DD"/>
<path d="M247.908 6.07886C253.106 6.07886 256.264 9.78821 256.264 14.3474C256.264 18.9066 253.106 22.586 247.908 22.586C242.71 22.586 239.552 18.9066 239.552 14.3474C239.552 9.78821 242.71 6.07886 247.908 6.07886ZM247.908 10.778C245.889 10.778 244.639 12.3578 244.639 14.3374C244.639 16.3171 245.899 17.9068 247.908 17.9068C249.917 17.9068 251.177 16.2971 251.177 14.3374C251.177 12.3778 249.917 10.778 247.908 10.778Z" fill="#FFF2DD"/>
<path d="M257.134 14.3475C257.134 8.58846 261.132 6.10889 265.34 6.10889C268.959 6.10889 271.937 7.91857 272.617 11.138L268.179 12.3378C267.889 11.138 266.75 10.4381 265.35 10.4381C263.661 10.4381 262.172 11.6079 262.172 14.3475C262.172 17.087 263.661 18.2368 265.35 18.2368C266.75 18.2368 267.889 17.5369 268.179 16.3371L272.617 17.5369C271.947 20.7463 268.969 22.586 265.34 22.586C261.132 22.586 257.134 20.1064 257.134 14.3475Z" fill="#FFF2DD"/>
<path d="M278.894 16.6271V22.0562H273.986V0H278.894V12.0979H281.313C282.772 12.0979 283.272 11.8379 283.272 10.2282V6.65884H288.18V10.7181C288.18 12.3278 287.68 13.4377 286.691 14.0775C287.95 14.7774 288.68 16.0072 288.68 17.9369V22.0562H283.772V18.4968C283.772 16.887 283.302 16.6271 281.813 16.6271H278.894Z" fill="#FFF2DD"/>
<path d="M289.879 14.3475C289.879 8.58846 293.877 6.10889 298.085 6.10889C301.704 6.10889 304.683 7.91857 305.362 11.138L300.924 12.3378C300.634 11.138 299.495 10.4381 298.095 10.4381C296.406 10.4381 294.917 11.6079 294.917 14.3475C294.917 17.087 296.406 18.2368 298.095 18.2368C299.495 18.2368 300.634 17.5369 300.924 16.3371L305.362 17.5369C304.693 20.7463 301.714 22.586 298.085 22.586C293.877 22.586 289.879 20.1064 289.879 14.3475Z" fill="#FFF2DD"/>
<path d="M311.629 13.6476V22.0562H306.721V0H311.629V8.23857C312.649 7.00878 314.138 6.3389 316.187 6.3689C319.426 6.42889 322.204 8.96844 322.204 13.2377V22.0562H317.297V13.6476C317.297 11.488 316.127 10.4082 314.468 10.4082C312.809 10.4082 311.639 11.488 311.639 13.6476H311.629Z" fill="#FFF2DD"/>
<path d="M330.651 22.636C327.232 22.636 323.524 20.0364 323.524 14.3674C323.524 8.69843 327.262 6.09888 330.681 6.09888C332.72 6.09888 334.619 7.00872 335.618 8.75842V6.65878H340.526V22.0561H335.618V19.9565C334.629 21.7062 332.7 22.646 330.651 22.646V22.636ZM335.608 14.3774C335.608 11.6879 333.999 10.3481 332.22 10.3481C330.441 10.3481 328.832 11.5479 328.832 14.3774C328.832 17.2069 330.441 18.3767 332.22 18.3767C333.999 18.3767 335.608 17.057 335.608 14.3774Z" fill="#FFF2DD"/>
<path d="M342.715 0H347.623V4.90915H342.715V0ZM342.715 6.65884H347.623V22.0562H342.715V6.65884Z" fill="#FFF2DD"/>
<path d="M354.71 13.6476V22.0561H349.802V6.65883H354.71V8.23855C355.729 7.00877 357.219 6.33889 359.268 6.36889C362.506 6.42887 365.285 8.96843 365.285 13.2377V22.0561H360.377V13.6476C360.377 11.488 359.208 10.4082 357.549 10.4082C355.889 10.4082 354.72 11.488 354.72 13.6476H354.71Z" fill="#FFF2DD"/>
<path d="M391.434 3.70795L381.546 13.5986L391.434 23.4893L401.322 13.5986L391.434 3.70795Z" fill="#FFF2DD"/>
<path d="M424.838 15.6272V22.0561H419.76V1.60962H424.838V10.698C426.068 9.49825 427.317 8.82836 429.216 8.82836C431.115 8.82836 432.395 9.49825 433.624 10.698V1.60962H438.702V22.0561H433.624V15.6272C432.285 14.1074 431.025 13.4376 429.216 13.4376C427.407 13.4376 426.178 14.1074 424.838 15.6272Z" fill="#FFF2DD"/>
<path d="M440.721 15.5174V6.66895H445.629V15.0775C445.629 17.2371 446.828 18.3169 448.457 18.3169C450.087 18.3169 451.286 17.2371 451.286 15.0775V6.66895H456.194V22.0662H451.286V20.5165C450.297 21.7163 448.777 22.4162 446.758 22.3562C443.52 22.3262 440.711 19.7866 440.711 15.5174H440.721Z" fill="#FFF2DD"/>
<path d="M463.301 8.76847C464.29 7.01878 466.19 6.10893 468.239 6.10893C471.657 6.10893 475.395 8.70848 475.395 14.3775C475.395 20.0465 471.687 22.6461 468.269 22.6461C466.23 22.6461 464.3 21.7162 463.301 19.9565V22.0562H458.393V0H463.301V8.75848V8.76847ZM463.301 14.3775C463.301 17.067 464.91 18.3768 466.719 18.3768C468.529 18.3768 470.108 17.177 470.108 14.3775C470.108 11.578 468.499 10.3482 466.719 10.3482C464.94 10.3482 463.301 11.688 463.301 14.3775Z" fill="#FFF2DD"/>
<path d="M51.3667 33.7656C51.3667 33.7656 34.2545 55.0319 0 52.5124C0 52.5124 24.179 61.5908 50.877 57.0516C50.877 57.0516 35.7638 78.2179 22.6697 80.7374C22.6697 80.7374 46.8288 81.7472 55.9047 75.7083C55.7148 76.0882 49.3277 88.5461 15.6129 104.423C15.6129 104.423 47.8584 103.913 69.5186 86.7864C69.5186 86.7864 61.4622 108.952 37.2731 124.07C37.2731 124.07 86.141 127.099 105.792 91.8255C105.792 91.8255 105.792 110.462 100.754 115.501C100.754 115.501 111.869 113.542 123.204 102.874L152.281 33.8556L51.3667 33.7656ZM111.62 64.1403L95.177 80.2575L87.3405 87.9462C87.7103 85.1666 87.6604 82.2771 87.1806 79.2377C86.6708 75.8683 85.6413 72.3089 84.112 68.4796C81.2732 61.4108 77.6849 56.0817 73.067 52.3824L88.5399 52.5024L123.204 52.7723L111.62 64.1403Z" fill="#FFF2DD"/>
<path d="M178.879 33.8555H160.447L131.37 102.873H149.992L151.471 99.324C154.43 92.1253 161.526 88.5759 169.613 88.5759C177.699 88.5759 184.896 92.1253 187.845 99.324L189.324 102.873H207.466V101.714L178.879 33.8555ZM169.613 73.5885C166.264 73.5885 163.506 74.1884 161.237 75.4682L169.613 55.0518L178.089 75.4682C175.82 74.1884 173.061 73.5885 169.613 73.5885Z" fill="#FFF2DD"/>
<path d="M207.466 101.712V102.872H207.956L207.466 101.712Z" fill="#FFF2DD"/>
<path d="M254.285 33.8538V65.1083L223.828 33.8538H207.466V102.872H224.618V57.2197L254.285 87.3944V102.872H271.437V33.8538H254.285Z" fill="#FFF2DD"/>
<path d="M291.058 99.3223L289.579 102.872H270.947L300.024 33.8538H318.456L347.532 102.872H328.901L327.422 99.3223C324.463 92.1236 317.366 88.5742 309.19 88.5742C301.013 88.5742 294.007 92.1236 291.048 99.3223H291.058ZM309.19 55.0501L300.814 75.4565C303.083 74.1767 305.841 73.5868 309.19 73.5868C312.538 73.5868 315.397 74.1767 317.666 75.4565L309.19 55.0501Z" fill="#FFF2DD"/>
<path d="M347.043 102.872V33.8538H363.405L393.862 65.1083V33.8538H411.014V102.872H393.862V87.3944L364.195 57.2197V102.872H347.043Z" fill="#FFF2DD"/>
<path d="M448.477 105.431C431.225 105.431 413.583 93.3034 413.583 68.2578C413.583 43.2122 431.035 31.5742 448.277 31.5742C458.532 31.5742 468.678 35.7135 474.985 43.5021L462.071 54.1503C458.822 50.211 453.494 47.9414 448.177 47.9414C439.601 47.9414 431.125 53.8603 431.125 68.2578C431.125 82.6553 440.091 89.5541 448.767 89.5541C455.863 89.5541 462.76 85.2148 464.04 78.1161H448.957V62.9287H481.392V72.887C481.392 94.2833 465.129 105.421 448.467 105.421L448.477 105.431Z" fill="#FFF2DD"/>
</svg>
