<svg width="482" height="125" viewBox="0 0 482 125" fill="none" xmlns="http://www.w3.org/2000/svg">
<path d="M224.599 22.056H213.474V1.60962H223.639C228.427 1.60962 230.796 3.9792 230.676 7.36861C230.586 9.1483 229.886 10.5481 228.547 11.4879C230.616 12.4777 231.645 14.3474 231.645 16.487C231.645 19.7265 228.957 22.066 224.609 22.066L224.599 22.056ZM218.551 6.36879V9.57823H223.749C225.148 9.57823 225.618 8.90834 225.618 7.96851C225.618 7.02867 225.148 6.35879 223.749 6.35879H218.551V6.36879ZM218.551 14.0774V17.2869H224.689C226.178 17.2869 226.588 16.647 226.588 15.6772C226.588 14.7073 226.178 14.0674 224.689 14.0674H218.551V14.0774Z" fill="#231F20"/>
<path d="M233.125 22.0561V0H238.033V22.0561H233.125Z" fill="#231F20"/>
<path d="M247.908 6.07886C253.106 6.07886 256.264 9.78821 256.264 14.3474C256.264 18.9066 253.106 22.586 247.908 22.586C242.71 22.586 239.552 18.9066 239.552 14.3474C239.552 9.78821 242.71 6.07886 247.908 6.07886ZM247.908 10.778C245.889 10.778 244.639 12.3578 244.639 14.3374C244.639 16.3171 245.899 17.9068 247.908 17.9068C249.917 17.9068 251.177 16.2971 251.177 14.3374C251.177 12.3778 249.917 10.778 247.908 10.778Z" fill="#231F20"/>
<path d="M257.134 14.3374C257.134 8.57844 261.132 6.09888 265.34 6.09888C268.959 6.09888 271.937 7.90856 272.617 11.128L268.179 12.3278C267.889 11.128 266.75 10.4281 265.35 10.4281C263.661 10.4281 262.172 11.5979 262.172 14.3374C262.172 17.077 263.661 18.2268 265.35 18.2268C266.75 18.2268 267.889 17.5269 268.179 16.3271L272.617 17.5269C271.947 20.7363 268.969 22.576 265.34 22.576C261.132 22.576 257.134 20.0964 257.134 14.3374Z" fill="#231F20"/>
<path d="M278.894 16.6171V22.0461H273.986V0H278.894V12.0979H281.313C282.772 12.0979 283.272 11.8379 283.272 10.2282V6.65884H288.18V10.7181C288.18 12.3278 287.68 13.4377 286.691 14.0775C287.95 14.7774 288.68 16.0072 288.68 17.9369V22.0561H283.772V18.4968C283.772 16.887 283.302 16.6271 281.813 16.6271H278.894V16.6171Z" fill="#231F20"/>
<path d="M289.879 14.3374C289.879 8.57844 293.877 6.09888 298.085 6.09888C301.704 6.09888 304.683 7.90856 305.362 11.128L300.924 12.3278C300.634 11.128 299.495 10.4281 298.095 10.4281C296.406 10.4281 294.917 11.5979 294.917 14.3374C294.917 17.077 296.406 18.2268 298.095 18.2268C299.495 18.2268 300.634 17.5269 300.924 16.3271L305.362 17.5269C304.693 20.7363 301.714 22.576 298.085 22.576C293.877 22.576 289.879 20.0964 289.879 14.3374Z" fill="#231F20"/>
<path d="M311.629 13.6376V22.0461H306.721V0H311.629V8.23856C312.649 7.00877 314.138 6.33889 316.187 6.36889C319.426 6.42888 322.204 8.96843 322.204 13.2377V22.0561H317.297V13.6476C317.297 11.488 316.127 10.4082 314.468 10.4082C312.809 10.4082 311.639 11.488 311.639 13.6476L311.629 13.6376Z" fill="#231F20"/>
<path d="M330.651 22.636C327.232 22.636 323.524 20.0364 323.524 14.3674C323.524 8.69842 327.262 6.09888 330.681 6.09888C332.72 6.09888 334.619 7.00872 335.618 8.75841V6.65878H340.526V22.0561H335.618V19.9565C334.629 21.7061 332.7 22.646 330.651 22.646V22.636ZM335.608 14.3674C335.608 11.6779 333.999 10.3381 332.22 10.3381C330.441 10.3381 328.832 11.5379 328.832 14.3674C328.832 17.1969 330.441 18.3667 332.22 18.3667C333.999 18.3667 335.608 17.047 335.608 14.3674Z" fill="#231F20"/>
<path d="M342.715 0H347.623V4.90914H342.715V0ZM342.715 6.65884H347.623V22.0561H342.715V6.65884Z" fill="#231F20"/>
<path d="M354.71 13.6376V22.0461H349.802V6.65883H354.71V8.23856C355.729 7.00877 357.219 6.33889 359.268 6.36889C362.506 6.42887 365.285 8.96843 365.285 13.2377V22.0561H360.377V13.6476C360.377 11.488 359.208 10.4082 357.549 10.4082C355.889 10.4082 354.72 11.488 354.72 13.6476L354.71 13.6376Z" fill="#231F20"/>
<path d="M391.433 3.70746L381.545 13.5981L391.433 23.4888L401.321 13.5982L391.433 3.70746Z" fill="#231F20"/>
<path d="M424.838 15.6272V22.056H419.76V1.60962H424.838V10.698C426.068 9.49824 427.317 8.82836 429.216 8.82836C431.115 8.82836 432.395 9.49824 433.624 10.698V1.60962H438.702V22.056H433.624V15.6272C432.285 14.1074 431.025 13.4376 429.216 13.4376C427.407 13.4376 426.178 14.1074 424.838 15.6272Z" fill="#231F20"/>
<path d="M440.721 15.5074V6.65894H445.629V15.0675C445.629 17.2271 446.828 18.3069 448.457 18.3069C450.087 18.3069 451.286 17.2271 451.286 15.0675V6.65894H456.194V22.0562H451.286V20.5065C450.297 21.7063 448.777 22.4062 446.758 22.3462C443.52 22.3162 440.711 19.7766 440.711 15.5074H440.721Z" fill="#231F20"/>
<path d="M463.301 8.75847C464.29 7.00878 466.19 6.09893 468.239 6.09893C471.657 6.09893 475.395 8.69848 475.395 14.3675C475.395 20.0365 471.687 22.636 468.269 22.636C466.23 22.636 464.3 21.7062 463.301 19.9465V22.0461H458.393V0H463.301V8.75847ZM463.301 14.3675C463.301 17.057 464.91 18.3668 466.719 18.3668C468.529 18.3668 470.108 17.167 470.108 14.3675C470.108 11.568 468.499 10.3382 466.719 10.3382C464.94 10.3382 463.301 11.678 463.301 14.3675Z" fill="#231F20"/>
<path d="M51.3667 33.7539C51.3667 33.7539 34.2545 55.0202 0 52.5006C0 52.5006 24.179 61.579 50.877 57.0398C50.877 57.0398 35.7638 78.2061 22.6697 80.7257C22.6697 80.7257 46.8288 81.7355 55.9047 75.6966C55.7148 76.0765 49.3277 88.5343 15.6129 104.412C15.6129 104.412 47.8584 103.902 69.5186 86.7746C69.5186 86.7746 61.4622 108.941 37.2731 124.058C37.2731 124.058 86.141 127.088 105.792 91.8138C105.792 91.8138 105.792 110.451 100.754 115.49C100.754 115.49 111.869 113.53 123.204 102.862L152.281 33.8439L51.3667 33.7539ZM111.62 64.1286L95.177 80.2458L87.3405 87.9344C87.7103 85.1549 87.6604 82.2654 87.1806 79.226C86.6708 75.8565 85.6413 72.2972 84.112 68.4678C81.2732 61.3991 77.6849 56.07 73.067 52.3707L88.5399 52.4906L123.204 52.7606L111.62 64.1286Z" fill="#231F20"/>
<path d="M178.879 33.8438H160.447L131.37 102.862H149.992L151.471 99.3123C154.43 92.1136 161.526 88.5642 169.613 88.5642C177.699 88.5642 184.896 92.1136 187.845 99.3123L189.324 102.862H207.466V101.702L178.879 33.8438ZM169.613 73.5768C166.264 73.5768 163.506 74.1767 161.237 75.4565L169.613 55.04L178.089 75.4565C175.82 74.1767 173.061 73.5768 169.613 73.5768Z" fill="#231F20"/>
<path d="M207.466 101.702V102.862H207.956L207.466 101.702Z" fill="#231F20"/>
<path d="M254.285 33.8438V65.0983L223.828 33.8438H207.466V102.862H224.618V57.2097L254.285 87.3844V102.862H271.437V33.8438H254.285Z" fill="#231F20"/>
<path d="M291.058 99.3223L289.579 102.872H270.947L300.024 33.8538H318.456L347.532 102.872H328.901L327.422 99.3223C324.463 92.1236 317.366 88.5742 309.19 88.5742C301.013 88.5742 294.007 92.1236 291.048 99.3223H291.058ZM309.19 55.0501L300.814 75.4565C303.083 74.1767 305.841 73.5868 309.19 73.5868C312.538 73.5868 315.397 74.1767 317.666 75.4565L309.19 55.0501Z" fill="#231F20"/>
<path d="M347.043 102.872V33.8538H363.405L393.862 65.1083V33.8538H411.014V102.872H393.862V87.3944L364.195 57.2197V102.872H347.043Z" fill="#231F20"/>
<path d="M448.477 105.431C431.225 105.431 413.583 93.3034 413.583 68.2578C413.583 43.2122 431.035 31.5742 448.277 31.5742C458.532 31.5742 468.678 35.7135 474.985 43.5021L462.071 54.1503C458.822 50.211 453.494 47.9414 448.177 47.9414C439.601 47.9414 431.125 53.8603 431.125 68.2578C431.125 82.6553 440.091 89.5541 448.767 89.5541C455.863 89.5541 462.76 85.2148 464.04 78.1161H448.957V62.9287H481.392V72.887C481.392 94.2833 465.129 105.421 448.467 105.421L448.477 105.431Z" fill="#231F20"/>
</svg>
